# xmcd
#
# Track frame offsets:
# 150
# 15317
# 29661
# 42767
# 53431
# 63952
# 77880
# 94487
# 105006
# 120588
# 132028
# 144846
# 157413
# 170111
#
# Disc length: 2459 seconds
#
#
# Revision: 2
# Processed by: cddbd v1.5.2PL0 Copyright (c) Steve Scherf et al.
# Submitted via: FreeRIP 2.945 
#
DISCID=af09990e
DTITLE=Edson e Hudson - Na moda do Brasil
DYEAR=2007
DGENRE=Country
TTITLE0=Viva a vida
TTITLE1=As andorinhas
TTITLE2=Bicho bom é mulher
TTITLE3=Do mundo nada se leva
TTITLE4=O Doutor e a empregada
TTITLE5=Viola esta chorando
TTITLE6=Vá Pro Inferno Com Seu Amor
TTITLE7=Quebradas da Noite
TTITLE8=Blusa Vermelha
TTITLE9=Estrada da vida
TTITLE10=Ainda ontem chorei de saudade
TTITLE11=Saudade da minha terra
TTITLE12=Bobeou... a gente pinba
TTITLE13=Hoje eu nao posso ir
EXTD=YEAR: 2007
EXTT0=
EXTT1=
EXTT2=
EXTT3=
EXTT4=
EXTT5=
EXTT6=
EXTT7=
EXTT8=
EXTT9=
EXTT10=
EXTT11=
EXTT12=
EXTT13=
PLAYORDER=
